<svg width="212" height="212" viewBox="0 0 212 212" fill="none" xmlns="http://www.w3.org/2000/svg">
<rect x="0.231934" y="-0.0001297" width="211.749" height="211.749" rx="31.1396" fill="#121A38"/>
<rect x="1.52309" y="1.29102" width="209.167" height="209.167" rx="29.8484" stroke="#264DE4" stroke-opacity="0.4" stroke-width="2.5823"/>
<path d="M103.463 163.626L61.2806 151.916L51.8804 46.4816H155.173L145.762 151.9L103.463 163.626Z" fill="#264DE4"/>
<path d="M137.706 145.185L145.747 55.1003H103.526V154.661L137.706 145.185Z" fill="#2965F1"/>
<path d="M73.4312 94.2061L74.5901 107.137H103.527V94.2061H73.4312Z" fill="#EBEBEB"/>
<path d="M71.1011 68.0333L72.2766 80.9645H103.526V68.0333H71.1011Z" fill="#EBEBEB"/>
<path d="M103.525 127.789L103.468 127.804L89.0669 123.915L88.1463 113.602H75.1655L76.9772 133.906L103.466 141.259L103.525 141.242V127.789Z" fill="#EBEBEB"/>
<path d="M133.538 94.2062L135.873 68.0333H103.48V80.9645H121.701L120.525 94.2062H103.48V107.137H119.403L117.902 123.908L103.48 127.8V141.254L129.989 133.907L130.184 131.722L133.223 97.6785L133.538 94.2062Z" fill="white"/>
</svg>
