<svg width="213" height="213" viewBox="0 0 213 213" fill="none" xmlns="http://www.w3.org/2000/svg">
<path d="M88.3875 165.538C99.791 165.538 109.046 156.283 109.046 144.88V124.221H88.3875C76.984 124.221 67.729 133.476 67.729 144.88C67.729 156.283 76.984 165.538 88.3875 165.538Z" fill="#0ACF83"/>
<path d="M67.729 103.562C67.729 92.1583 76.984 82.9033 88.3875 82.9033H109.046V124.22H88.3875C76.984 124.22 67.729 114.965 67.729 103.562Z" fill="#A259FF"/>
<path d="M67.729 62.2461C67.729 50.8426 76.984 41.5876 88.3875 41.5876H109.046V82.9046H88.3875C76.984 82.9046 67.729 73.6496 67.729 62.2461Z" fill="#F24E1E"/>
<path d="M109.044 41.5875H129.702C141.106 41.5875 150.361 50.8425 150.361 62.246C150.361 73.6495 141.106 82.9045 129.702 82.9045H109.044V41.5875Z" fill="#FF7262"/>
<path d="M150.361 103.562C150.361 114.965 141.106 124.22 129.702 124.22C118.299 124.22 109.044 114.965 109.044 103.562C109.044 92.1583 118.299 82.9033 129.702 82.9033C141.106 82.9033 150.361 92.1583 150.361 103.562Z" fill="#1ABCFE"/>
<rect x="0.587891" y="0.271133" width="211.749" height="211.749" rx="31.1396" fill="#FF7262" fill-opacity="0.2"/>
<rect x="1.87904" y="1.56229" width="209.167" height="209.167" rx="29.8484" stroke="#FF7262" stroke-opacity="0.4" stroke-width="2.5823"/>
</svg>
