<svg width="213" height="213" viewBox="0 0 213 213" fill="none" xmlns="http://www.w3.org/2000/svg">
<rect x="0.296875" y="0.270924" width="211.749" height="211.749" rx="31.1396" fill="#3C3710"/>
<rect x="1.58803" y="1.56208" width="209.167" height="209.167" rx="29.8484" stroke="#F7DF1E" stroke-opacity="0.4" stroke-width="2.5823"/>
<path d="M51.9424 51.9171H155.235V155.209H51.9424V51.9171Z" fill="#F7DF1E"/>
<path d="M79.1007 138.235L87.0054 133.451C88.5303 136.155 89.9176 138.443 93.2451 138.443C96.4347 138.443 98.4456 137.195 98.4456 132.342V99.3378H108.152V132.479C108.152 142.533 102.259 147.109 93.6612 147.109C85.8961 147.109 81.3886 143.088 79.1006 138.234" fill="#0D0D0D"/>
<path d="M113.424 137.195L121.327 132.619C123.408 136.017 126.112 138.513 130.896 138.513C134.918 138.513 137.483 136.502 137.483 133.729C137.483 130.4 134.848 129.222 130.411 127.281L127.985 126.24C120.981 123.259 116.336 119.515 116.336 111.611C116.336 104.33 121.882 98.7832 130.55 98.7832C136.721 98.7832 141.158 100.933 144.347 106.549L136.789 111.402C135.125 108.421 133.323 107.243 130.55 107.243C127.707 107.243 125.904 109.045 125.904 111.402C125.904 114.315 127.707 115.494 131.867 117.296L134.293 118.336C142.544 121.873 147.19 125.478 147.19 133.59C147.19 142.327 140.326 147.11 131.104 147.11C122.091 147.11 116.266 142.812 113.424 137.195" fill="#0D0D0D"/>
</svg>
