<svg width="374" height="362" viewBox="0 0 374 362" fill="none" xmlns="http://www.w3.org/2000/svg">
<path d="M50.7277 303.914C61.296 303.914 68.9958 302.404 73.827 299.385C78.9602 296.667 82.4325 291.534 84.2443 283.985L0 64.7684H75.6388L118.667 217.857L159.43 64.7684H232.352L152.636 293.043C144.181 317.5 133.009 335.014 119.12 345.583C105.532 356.453 87.4147 361.889 64.7685 361.889C58.4275 361.889 51.7845 361.587 44.8396 360.983C38.1968 360.379 32.1578 359.473 26.7226 358.265V303.008C29.1383 303.31 31.8558 303.461 34.8752 303.461C37.8949 303.763 43.179 303.914 50.7277 303.914ZM374 288.514H303.796V67.0331L236.311 74.7327V15.8524L374 0V288.514Z" fill="white"/>
</svg>
