<svg width="213" height="213" viewBox="0 0 213 213" fill="none" xmlns="http://www.w3.org/2000/svg">
<rect x="0.293945" y="0.975037" width="211.749" height="211.749" rx="31.1396" fill="#242424"/>
<rect x="1.5851" y="2.26619" width="209.167" height="209.167" rx="29.8484" stroke="#808080" stroke-opacity="0.4" stroke-width="2.5823"/>
<path d="M100.203 52.6489C99.9809 52.6691 99.2741 52.7398 98.638 52.7903C83.9671 54.1128 70.2251 62.0276 61.5215 74.1927C56.6749 80.9567 53.5752 88.6293 52.4039 96.7562C51.9899 99.593 51.9395 100.431 51.9395 104.277C51.9395 108.124 51.9899 108.962 52.4039 111.798C55.2109 131.192 69.0135 147.486 87.7333 153.523C91.0855 154.603 94.6194 155.34 98.638 155.785C100.203 155.956 106.968 155.956 108.533 155.785C115.47 155.017 121.346 153.301 127.142 150.343C128.03 149.889 128.202 149.768 128.081 149.667C128 149.606 124.214 144.528 119.67 138.39L111.411 127.234L101.061 111.92C95.3666 103.5 90.6816 96.6148 90.6412 96.6148C90.6008 96.6047 90.5604 103.409 90.5402 111.718C90.5099 126.265 90.4998 126.851 90.3181 127.194C90.0556 127.689 89.8536 127.891 89.4296 128.113C89.1065 128.274 88.8237 128.305 87.2991 128.305H85.5523L85.0879 128.012C84.7849 127.82 84.5628 127.568 84.4114 127.275L84.1993 126.821L84.2195 106.579L84.2498 86.3275L84.5628 85.9338C84.7244 85.7218 85.0677 85.4492 85.31 85.318C85.724 85.1161 85.8855 85.0959 87.6323 85.0959C89.6921 85.0959 90.0354 85.1766 90.5705 85.7622C90.722 85.9237 96.3258 94.3635 103.03 104.53C109.735 114.696 118.903 128.577 123.406 135.392L131.584 147.779L131.998 147.506C135.664 145.124 139.541 141.732 142.61 138.198C149.143 130.697 153.354 121.551 154.767 111.798C155.181 108.962 155.232 108.124 155.232 104.277C155.232 100.431 155.181 99.593 154.767 96.7562C151.96 77.3627 138.158 61.0686 119.438 55.0315C116.136 53.9613 112.622 53.2244 108.685 52.7802C107.715 52.6792 101.041 52.5682 100.203 52.6489ZM121.346 83.8844C121.831 84.1267 122.225 84.5911 122.366 85.0757C122.447 85.3382 122.467 90.9513 122.447 103.601L122.416 121.753L119.216 116.846L116.005 111.94V98.745C116.005 90.2143 116.045 85.4189 116.106 85.1867C116.267 84.6214 116.621 84.1772 117.105 83.9147C117.519 83.7027 117.671 83.6825 119.256 83.6825C120.75 83.6825 121.013 83.7027 121.346 83.8844Z" fill="#808080"/>
</svg>
