<svg width="213" height="213" viewBox="0 0 213 213" fill="none" xmlns="http://www.w3.org/2000/svg">
<rect x="0.846191" y="0.290649" width="211.749" height="211.749" rx="31.1396" fill="#0A2525"/>
<rect x="2.13734" y="1.5818" width="209.167" height="209.167" rx="29.8484" stroke="#008383" stroke-opacity="0.4" stroke-width="2.5823"/>
<path d="M145.074 90.2102C143.883 89.8002 142.648 89.4123 141.378 89.0455C141.587 88.1931 141.778 87.3517 141.949 86.5246C144.746 72.9437 142.917 62.0028 136.671 58.4006C130.681 54.9466 120.885 58.548 110.992 67.1576C110.041 67.9855 109.087 68.862 108.133 69.7807C107.498 69.1729 106.864 68.5855 106.231 68.0237C95.8627 58.8177 85.4701 54.9382 79.2297 58.5508C73.2458 62.0149 71.4737 72.3003 73.9921 85.1711C74.2353 86.4142 74.5196 87.6838 74.8411 88.9746C73.3703 89.3921 71.9503 89.8372 70.5917 90.3107C58.436 94.5487 50.6729 101.191 50.6729 108.08C50.6729 115.196 59.0066 122.333 71.6677 126.66C72.6668 127.002 73.7036 127.325 74.772 127.631C74.4252 129.027 74.1236 130.395 73.8703 131.73C71.469 144.377 73.3443 154.419 79.3123 157.862C85.4766 161.416 95.8222 157.762 105.896 148.957C106.692 148.261 107.491 147.522 108.292 146.749C109.33 147.748 110.365 148.693 111.396 149.58C121.154 157.977 130.791 161.368 136.754 157.916C142.912 154.351 144.913 143.563 142.315 130.438C142.116 129.435 141.885 128.411 141.626 127.369C142.353 127.154 143.066 126.932 143.761 126.702C156.924 122.341 165.488 115.291 165.488 108.08C165.488 101.166 157.474 94.4791 145.074 90.2102ZM142.219 122.046C141.591 122.254 140.947 122.455 140.29 122.65C138.837 118.05 136.876 113.158 134.476 108.104C136.766 103.171 138.652 98.3416 140.064 93.7713C141.239 94.1112 142.379 94.4696 143.477 94.8479C154.102 98.5055 160.583 103.913 160.583 108.08C160.583 112.519 153.584 118.28 142.219 122.046ZM137.503 131.39C138.652 137.194 138.816 142.442 138.055 146.544C137.371 150.23 135.996 152.687 134.296 153.671C130.677 155.766 122.94 153.043 114.595 145.862C113.638 145.039 112.674 144.16 111.708 143.23C114.943 139.692 118.176 135.578 121.332 131.01C126.882 130.517 132.126 129.712 136.882 128.613C137.116 129.558 137.324 130.484 137.503 131.39ZM89.8158 153.309C86.2806 154.558 83.465 154.594 81.7631 153.612C78.1414 151.523 76.6359 143.46 78.6896 132.644C78.9248 131.406 79.2048 130.133 79.5275 128.833C84.2308 129.873 89.4363 130.621 95 131.072C98.1769 135.542 101.504 139.651 104.856 143.249C104.124 143.956 103.394 144.629 102.669 145.263C98.2139 149.157 93.7499 151.92 89.8158 153.309ZM73.254 122.019C67.6555 120.105 63.0321 117.618 59.8629 114.905C57.0152 112.466 55.5775 110.045 55.5775 108.08C55.5775 103.899 61.8105 98.5668 72.2062 94.9424C73.4675 94.5025 74.788 94.0881 76.1582 93.6988C77.595 98.3723 79.4797 103.259 81.7541 108.2C79.4502 113.214 77.5388 118.178 76.0879 122.906C75.1111 122.626 74.1646 122.33 73.254 122.019ZM78.8056 84.2291C76.6479 73.2018 78.081 64.8832 81.687 62.7958C85.5281 60.572 94.0219 63.7426 102.974 71.6915C103.546 72.1996 104.121 72.7314 104.697 73.2815C101.361 76.8635 98.0647 80.9415 94.916 85.3853C89.5162 85.8858 84.3473 86.6897 79.5949 87.7664C79.2961 86.5645 79.0315 85.3836 78.8056 84.2291ZM128.332 96.4584C127.195 94.496 126.029 92.5801 124.84 90.7164C128.503 91.1795 132.013 91.7943 135.309 92.5465C134.32 95.7179 133.086 99.0338 131.635 102.433C130.593 100.456 129.492 98.4622 128.332 96.4584ZM108.135 76.7868C110.397 79.2378 112.663 81.9743 114.891 84.9434C112.646 84.8373 110.372 84.7822 108.08 84.7822C105.81 84.7822 103.553 84.8361 101.321 84.9403C103.552 81.9989 105.837 79.266 108.135 76.7868ZM87.8091 96.4923C86.6742 98.4602 85.5931 100.443 84.568 102.429C83.1397 99.042 81.9178 95.711 80.9196 92.4946C84.1955 91.7616 87.6887 91.1621 91.3287 90.7078C90.123 92.5886 88.947 94.5187 87.8091 96.4919V96.4923ZM91.4336 125.802C87.6728 125.383 84.127 124.814 80.852 124.101C81.8661 120.828 83.115 117.426 84.5735 113.965C85.6013 115.95 86.6867 117.934 87.8285 119.906H87.8287C88.9918 121.915 90.1967 123.883 91.4336 125.802ZM108.271 139.719C105.946 137.211 103.627 134.437 101.363 131.452C103.561 131.538 105.802 131.583 108.08 131.583C110.42 131.583 112.734 131.53 115.011 131.429C112.775 134.467 110.518 137.245 108.271 139.719ZM131.681 113.789C133.216 117.287 134.51 120.671 135.537 123.889C132.208 124.648 128.614 125.26 124.827 125.715C126.019 123.826 127.195 121.877 128.351 119.872C129.521 117.844 130.631 115.813 131.681 113.789ZM124.103 117.422C122.308 120.534 120.465 123.505 118.595 126.309C115.188 126.552 111.668 126.678 108.08 126.678C104.507 126.678 101.032 126.567 97.685 126.35C95.739 123.509 93.8564 120.529 92.0731 117.449H92.0735C90.2948 114.377 88.6579 111.279 87.1745 108.198C88.6574 105.11 90.2901 102.009 92.0585 98.9421L92.0581 98.9427C93.8312 95.8679 95.6973 92.903 97.6254 90.0798C101.04 89.8217 104.541 89.687 108.08 89.687H108.08C111.635 89.687 115.141 89.8227 118.554 90.0831C120.453 92.8856 122.306 95.841 124.086 98.9161C125.887 102.026 127.54 105.107 129.036 108.128C127.545 111.202 125.895 114.314 124.103 117.422ZM134.221 62.6498C138.065 64.867 139.561 73.809 137.145 85.5346C136.991 86.2828 136.817 87.0449 136.629 87.8172C131.865 86.7181 126.693 85.9003 121.277 85.3922C118.123 80.8996 114.853 76.8153 111.572 73.2793C112.454 72.4305 113.335 71.6212 114.212 70.8575C122.689 63.4808 130.611 60.5683 134.221 62.6498ZM108.08 97.8276C113.742 97.8276 118.333 102.418 118.333 108.08C118.333 113.742 113.742 118.333 108.08 118.333C102.418 118.333 97.8277 113.742 97.8277 108.08C97.8277 102.418 102.418 97.8276 108.08 97.8276Z" fill="#009C9C"/>
</svg>
