<svg width="213" height="213" viewBox="0 0 213 213" fill="none" xmlns="http://www.w3.org/2000/svg">
<rect x="0.587891" y="0.97467" width="211.749" height="211.749" rx="31.1396" fill="#0F302F"/>
<rect x="1.87904" y="2.26582" width="209.167" height="209.167" rx="29.8484" stroke="#17BBB8" stroke-opacity="0.4" stroke-width="2.5823"/>
<path d="M107.323 52.621C84.3696 52.621 70.0234 64.0979 64.285 87.0517C72.8927 75.5748 82.935 71.2709 94.4119 74.1402C100.96 75.7772 105.64 80.5277 110.821 85.7864C119.26 94.3526 129.028 104.267 150.362 104.267C173.316 104.267 187.662 92.7901 193.4 69.8363C184.793 81.3132 174.75 85.6171 163.273 82.7479C156.725 81.1108 152.045 76.3603 146.864 71.1017C138.425 62.5354 128.657 52.621 107.323 52.621ZM64.285 104.267C41.3312 104.267 26.985 115.744 21.2466 138.698C29.8543 127.221 39.8966 122.917 51.3735 125.786C57.9217 127.423 62.602 132.174 67.7826 137.432C76.2219 145.999 85.9894 155.913 107.323 155.913C130.277 155.913 144.623 144.436 150.362 121.482C141.754 132.959 131.712 137.263 120.235 134.394C113.687 132.757 109.006 128.006 103.826 122.748C95.3864 114.182 85.619 104.267 64.285 104.267Z" fill="#17BBB8"/>
</svg>
