<svg width="210" height="210" viewBox="0 0 210 210" fill="none" xmlns="http://www.w3.org/2000/svg">
<rect width="209.365" height="209.365" rx="30.789" fill="#14323D"/>
<rect x="1.29115" y="1.29115" width="206.783" height="206.783" rx="29.4979" stroke="#32C8FF" stroke-opacity="0.4" stroke-width="2.5823"/>
<path d="M49.2642 106.023V162.785H106.025H162.786V106.023V49.2623H106.025H49.2642V106.023Z" fill="#32C8FF"/>
<path d="M74.3708 106.398L74.3348 111.047H81.7228H89.1107V132.04V153.033H94.3363H99.562V132.04V111.047H106.95H114.338V106.488C114.338 103.966 114.284 101.857 114.212 101.803C114.158 101.731 105.166 101.695 94.2643 101.713L74.4249 101.767L74.3708 106.398Z" fill="#0D0D0D"/>
<path d="M140.868 101.635C143.751 102.356 145.949 103.635 147.967 105.726C149.013 106.843 150.562 108.879 150.688 109.366C150.724 109.51 145.787 112.825 142.796 114.681C142.688 114.753 142.255 114.285 141.769 113.564C140.309 111.438 138.778 110.519 136.435 110.357C132.993 110.122 130.777 111.924 130.795 114.934C130.795 115.817 130.921 116.339 131.281 117.06C132.038 118.628 133.444 119.565 137.859 121.475C145.985 124.97 149.463 127.277 151.625 130.556C154.04 134.214 154.581 140.053 152.941 144.395C151.139 149.116 146.67 152.324 140.381 153.387C138.435 153.729 133.822 153.675 131.732 153.297C127.173 152.486 122.848 150.234 120.181 147.278C119.136 146.125 117.1 143.116 117.226 142.9C117.28 142.828 117.749 142.539 118.271 142.233C118.776 141.945 120.686 140.845 122.488 139.8L125.749 137.908L126.434 138.917C127.389 140.377 129.48 142.377 130.741 143.044C134.363 144.954 139.336 144.684 141.787 142.485C142.832 141.53 143.264 140.539 143.264 139.08C143.264 137.764 143.102 137.188 142.417 136.196C141.534 134.935 139.733 133.872 134.615 131.656C128.759 129.133 126.236 127.565 123.93 125.078C122.596 123.637 121.335 121.33 120.812 119.402C120.38 117.799 120.272 113.78 120.614 112.159C121.821 106.5 126.092 102.554 132.254 101.383C134.255 101.005 138.904 101.149 140.868 101.635Z" fill="#0D0D0D"/>
</svg>
